<svg xmlns="http://www.w3.org/2000/svg" width="60.5" height="53.991" viewBox="0 0 60.5 53.991">
  <g id="Group_4103" data-name="Group 4103" transform="translate(-1236 -817.009)">
    <path id="Icon_awesome-user" data-name="Icon awesome-user" d="M22.926,26.2a13.1,13.1,0,1,0-13.1-13.1A13.1,13.1,0,0,0,22.926,26.2Zm9.17,3.275H30.387a17.816,17.816,0,0,1-14.922,0H13.756A13.759,13.759,0,0,0,0,43.232v4.258A4.914,4.914,0,0,0,4.913,52.4H40.939a4.914,4.914,0,0,0,4.913-4.913V43.232A13.759,13.759,0,0,0,32.1,29.476Z" transform="translate(1236 818.598)" fill="#707070"/>
    <rect id="Rectangle_810" data-name="Rectangle 810" width="4" height="5.432" transform="translate(1277.5 828.367)" fill="#707070"/>
    <rect id="Rectangle_811" data-name="Rectangle 811" width="4" height="10.37" transform="translate(1284.5 823.429)" fill="#707070"/>
    <rect id="Rectangle_812" data-name="Rectangle 812" width="4" height="16.79" transform="translate(1292.5 817.009)" fill="#707070"/>
  </g>
</svg>
